<?xml version="1.0" encoding="utf-8"?>
<!-- Generator: Adobe Illustrator 25.0.1, SVG Export Plug-In . SVG Version: 6.00 Build 0)  -->
<svg version="1.1" id="Capa_1" xmlns="http://www.w3.org/2000/svg" xmlns:xlink="http://www.w3.org/1999/xlink" x="0px" y="0px"
	 viewBox="0 0 1410.9 1410.9" style="enable-background:new 0 0 1410.9 1410.9;" xml:space="preserve">
<style type="text/css">
	.st0{clip-path:url(#SVGID_2_);}
	.st1{clip-path:url(#SVGID_4_);}
</style>
<g>
	<defs>
		<path id="SVGID_1_" d="M161.4,550.2c0,353.6,288,842.9,542.3,842.9c239.5,0,542.3-489.1,542.3-842.9s-242.8-532-542.3-532
			S161.4,196.6,161.4,550.2z M844.5,811.7c66.3-66.3,158.6-90.3,244-72.3c18,85.4-6.1,177.7-72.3,244s-158.6,90.3-244,72.3
			C754.2,970.3,778.3,878,844.5,811.7z M318.8,739.4c85.4-18,177.7,6.1,244,72.3s90.3,158.6,72.3,244c-85.4,18-177.7-6.1-244-72.3
			S300.9,824.7,318.8,739.4z"/>
	</defs>
	<clipPath id="SVGID_2_">
		<use xlink:href="#SVGID_1_"  style="overflow:visible;"/>
	</clipPath>
	<g class="st0">
		<g>
			<defs>
				<path id="SVGID_3_" d="M161.4,550.2c0,353.6,288,842.9,542.3,842.9c239.5,0,542.3-489.1,542.3-842.9s-242.8-532-542.3-532
					S161.4,196.6,161.4,550.2z M844.5,811.7c66.3-66.3,158.6-90.3,244-72.3c18,85.4-6.1,177.7-72.3,244s-158.6,90.3-244,72.3
					C754.2,970.3,778.3,878,844.5,811.7z M318.8,739.4c85.4-18,177.7,6.1,244,72.3s90.3,158.6,72.3,244c-85.4,18-177.7-6.1-244-72.3
					S300.9,824.7,318.8,739.4z"/>
			</defs>
			<clipPath id="SVGID_4_">
				<use xlink:href="#SVGID_3_"  style="overflow:visible;"/>
			</clipPath>
			<g class="st1">
			</g>
			<use xlink:href="#SVGID_3_"  style="overflow:visible;fill:none;stroke:#000000;stroke-width:20;stroke-miterlimit:10;"/>
		</g>
	</g>
	<use xlink:href="#SVGID_1_"  style="overflow:visible;fill:none;stroke:#000000;stroke-width:20;stroke-miterlimit:10;"/>
</g>
<path d="M352,923c7.6,13.4,16.5,26.3,25.7,38.8c9.4,13.2,19.2,26.1,31.5,36.6c18.8,16.5,42,26.6,65.4,35.3
	c47.5,17.6,98.7,30.8,148.9,23.2c2.7-0.4,5.6-0.9,7.6-2.5c3.3-2.5,4.5-6.9,5.4-10.9c8.7-44.6,4.7-91.7-11.6-134.4
	c-6.5-17.2-15-33.7-23.7-50c-5.6-10.7-11.4-21.2-19-30.6c-8.3-10-18.8-18.3-29.5-26.1c-47.5-33.9-103.4-57.8-161.8-65
	c-16.5-2-59.4-10.7-69.4,6.9c-5.8,10.3-4.2,29.5-4.5,40.8c-0.2,14.7,0.7,29.7,2.9,44.2C324.8,862.3,335.8,894.2,352,923z"/>
<path d="M960.9,747.7c-16.2,4.5-31.7,11-46.9,17.5c-25.8,11-52.6,22.7-71.4,43.6c-9.9,11-17.1,24-24.3,36.8
	c-5.4,9.9-10.8,19.5-16.2,29.4c-4.3,7.9-8.5,15.5-11.7,23.8c-2.9,7.6-4.5,15.5-6.3,23.6c-3.6,16.2-7,32.1-10.6,48.3
	c-5.2,23.4-10.3,47.2-7.9,71.2c0.4,3.6,1.1,7.4,3.8,9.9c2.2,2,5.6,2.5,8.5,2.9c46.9,5.2,95.2,2.9,139.5-13.7
	c21.1-7.9,40.9-19.1,60.4-30.3c15.5-9,31-18.2,44.7-29.9c27.6-24,45.6-57.7,55.7-92.8c10.1-35,13.3-71.9,14.6-108.5
	c0.4-8.8,2.5-28.7-5.2-35c-7.2-6.1-31-3.4-40.4-3.8C1018.4,739.1,989.2,740,960.9,747.7z"/>
</svg>
