<?xml version="1.0" encoding="utf-8"?>
<!-- Generator: Adobe Illustrator 25.0.1, SVG Export Plug-In . SVG Version: 6.00 Build 0)  -->
<svg version="1.1" id="Layer_1" xmlns="http://www.w3.org/2000/svg" xmlns:xlink="http://www.w3.org/1999/xlink" x="0px" y="0px"
	 viewBox="0 0 512 512" style="enable-background:new 0 0 512 512;" xml:space="preserve">
<style type="text/css">
	.st0{fill:#00FFB9;stroke:#00FFB9;}
	.st1{fill:#00CC93;stroke:#00CC93;}
	.st2{fill:#E19A74;stroke:#E19A74;}
	.st3{fill:#9664C8;stroke:#9664C8;}
	.st4{fill:#6E3D9C;stroke:#6E3D9C;}
	.st5{fill:#FCD2A6;stroke:#FCD2A6;}
	.st6{fill:#8E9DA8;stroke:#8E9DA8;}
	.st7{fill:#00996E;stroke:#00996E;}
	.st8{fill:#8E9DA7;stroke:#8E9DA7;}
	.st9{fill:#BE9C8A;stroke:#BE9C8A;}
	.st10{fill:#FEE5C3;stroke:#FEE5C3;}
	.st11{fill:#E09A74;stroke:#E09A74;}
</style>
<path class="st0" d="M152,128.9c9.3-13.7,18.6-27.4,28-41c3.1-4.4,6.5-8.6,10.1-12.6c15.5-17,31.1-34,52.3-44.3
	c16-7.8,33.1-12,50.8-10c11,1.3,21.7,5.2,32.1,8.4c-1.3,0.3-2.4,0.5-3.3,0.3c-11.2-2.3-23.2,6.1-27.2,14.3
	c-5.3,10.9-3.9,22.8,6.9,35.1c18.3,20.9,34,43.8,46.8,68.6c12.9,25.1,23.7,50.9,31.6,78c8.2,28.5,14.6,57.3,10.9,87.3
	c-1.8,14.9-6.4,28.5-19.2,38c-0.8,0.6-1.1,1.9-1.8,3.1c-7.3,6.4-14.8,12.3-21.6,18.8c-11.1,10.7-21.4,22.3-35,30.1
	c-4.4,2.5-5.2,6.9-2.8,10.6c2.2,3.4,7.2,4.5,11.1,1.7c8-5.8,16.1-11.7,23.5-18.3c7.9-7.1,15-15.1,22.7-22.4
	c6.7-6.3,14.3-10.9,24.3-9.4c4.3,2.5,8.3,4.9,12.5,6.9c3.3,1.6,3.9,3.5,2.3,6.7c-17.9,37.1-46.3,62-86.2,73.1
	c-7.8,2.2-15.8,3.2-24.2,4.8c-22.5,0.1-44.6,0.1-67.1,0.1c-15.1-0.3-29.8,0.1-44.3-1.1c-29.5-2.5-55.3-14.6-76.4-35.1
	c-9.7-9.4-17.2-21-25.8-32c-2.1-5.4-4-10.6-5.6-15.7c12.6-6.5,24.8-13,37.9-19.9c-8.9-5.5-13.4-12.8-16.3-21.2
	c-5.6-16-4.4-32.4-3-48.8c1.7-19.7,6.7-38.7,12.8-57.4c8.7-26.9,19.3-53,33.5-77.9C145.7,141.3,148.9,135.1,152,128.9 M176.1,267
	c0.4,11.9-0.6,24.1,1.4,35.8c8.3,47.8,54.3,77.1,96.7,71.1c35.6-5,66-31,73.4-66.2c2.8-13.4,1.7-27.7,2.4-42.6
	c-0.4-16.5-0.1-33-1.3-49.4c-0.8-10.5-3.1-21-5.9-31.2c-2.3-8.4-6.7-16.2-14.2-21.2c-11-7.4-22.1-5.2-32.8,1.2
	c-6.4,3.8-12.8,7.9-19.3,11.4c-10.3,5.6-20.4,4.9-30.1-1.9c-5.2-3.6-10.3-7.4-15.6-10.8c-13.7-8.6-32.7-6.2-41.8,9.2
	c-8.9,15.2-12,32-12.9,49.1C175.4,236.4,176.1,251.3,176.1,267 M135.1,349.8c-4.6,0.8-7.4,3.6-6.9,8.2c0.5,4.6,4,6,8.4,6.9
	c5.2,1.2,10.8,2.9,14.8,6.1c8.6,7,15.9,15.7,24.4,22.7c9.8,8.1,20.3,15.4,30.8,22.6c4.1,2.8,8.5,1.1,10.5-3c1.9-3.8,0.5-7.4-3.7-10
	c-3.8-2.3-8-4.3-11.3-7.2c-11.9-10.6-23.5-21.5-35.4-32.2C158,356.2,148.5,349.6,135.1,349.8z"/>
<path class="st1" d="M297.1,456.7c7.9-1.6,16-2.6,23.8-4.8c39.9-11.1,68.2-36,86.2-73.1c1.6-3.3,0.9-5.2-2.3-6.7
	c-4.2-2-8.2-4.4-12.3-7.2c2.7-3.2,5.8-5.8,4-10.2c-1.8-4.5-5.7-5.4-9.9-4.7c-5.5,1-10.8,2.6-16.3,3.9c0.5-1,0.8-2.2,1.6-2.8
	c12.8-9.4,17.4-23.1,19.2-38c3.6-30-2.7-58.8-10.9-87.3c-7.8-27.1-18.7-52.9-31.6-78c-12.7-24.8-28.4-47.6-46.8-68.6
	c-10.8-12.3-12.2-24.3-6.9-35.1c4-8.3,16-16.7,27.2-14.3c1,0.2,2,0.1,3.4,0.1c13.3,4.7,24.1,12.6,34.5,21.3
	c14.8,12.3,26.5,27.2,36.9,43.1c4,6.1,7.8,12.3,8.4,20c0.4,5.7-1.2,8.1-6.9,7.5c-7.2-0.8-14.3-2.5-21.9-4.3
	c-1.4-3.9-1.8-7.7-3.6-10.6c-5.2-7.9-10.5-15.8-16.6-23c-7.1-8.3-14.8-16.1-22.6-23.8c-3.2-3.2-8.2-2.8-10.8-0.2
	c-2.7,2.8-2.4,7.8,1,11.2c2.1,2.1,4.9,3.6,6.7,5.9c10,12.4,19.9,24.9,29.5,37.5c5.1,6.7,5.9,7.3,14.1,5.4c3.1,5.9,6.3,11.7,9.2,17.6
	c8.3,17.3,17,34.5,24.6,52.1c4.9,11.3,8.3,23.2,12.7,35.5c3,11.8,5.7,22.9,8.3,34c0.6,4,1.2,8,1.7,12.6c0.4,8.1,1.2,15.5,1.4,23
	c0.1,7-0.5,14.1-0.9,21.5c-3.1,14.6-7.8,27.8-21.8,36.7c13.7,7.5,26.6,14.6,39.7,21.7c-2.4,5.1-4.7,10.1-7.2,15.3
	c-5.7,7.9-11.2,15.5-16.9,23.3c-4.5,4.2-8.4,8.5-12.9,12.2c-23.3,19.5-50.1,30.2-80.6,31.4c-8.1,0.3-16.3,0.1-24.9,0.1
	C303,456.8,300.1,456.7,297.1,456.7z"/>
<path class="st2" d="M77,372.9c1.9,5.1,3.9,10.2,5.8,16c-8.2,9.4-16.4,18.1-24.6,26.9c-6.4-15.7-13.7-31.2-19-47.3
	c-9.2-28-17.7-56.2-25.4-84.7c-3.3-12.2-4.3-25-5.7-37.6c-1-9.4-1.4-18.9-1-28.3c1-24.4,6.1-48,14.8-70.8
	c7.9-20.7,18.9-39.6,32.5-56.9c13.4-17.1,29.1-32.1,47.2-44.3c1.9-1.3,4-2.3,5.5-3.9c1-1,1.6-2.8,1.7-4.3c0.5-5.2,0.2-10.6,1.2-15.7
	c1.7-8.5,10.7-9.5,16.3-7.3c10.9,4.3,14.5,13.8,16.6,24.1c0.6,3.2-0.1,6.7,0.2,10c0.8,9.5-5.4,13.7-12.6,17.2
	c-0.7,0.4-1.2,1.1-2.5,1.8c-5.2,3.4-9.6,6.8-14.5,10.1C103.4,87,93.4,96,83.9,105.5s-16.5,20.9-23,32.6c-8.5,15.5-14.5,32-17.6,49.3
	c-2.4,13.3-3.5,26.9-4.2,40.5c-0.4,7.8,0.9,15.7,1.9,23.5c1.2,9.5,2.1,19.2,4.6,28.4c5.8,20.9,12.3,41.6,19,62.2
	C68.2,352.5,72.9,362.6,77,372.9z"/>
<path class="st3" d="M58.1,416.1c8.3-9.1,16.5-17.8,24.9-26.8c8.6,10.3,16.2,22,25.8,31.4c21.1,20.6,46.9,32.6,76.4,35.1
	c14.5,1.2,29.2,0.8,44.1,1.4c-2.2,1.9-4.7,3.6-7.3,5.1c-26,15.9-52,31.7-78.3,47.7c-0.8,0.6-1.3,1.2-1.7,1.7c-36.7,0-73.5,0-111,0
	c0-9.2-1.1-18.6,0.3-27.6c1.9-11.9,5.1-23.7,8.8-35.3C43.9,436.8,50.1,426.1,58.1,416.1z"/>
<path class="st3" d="M306.8,456.9c8.2,0,16.3,0.2,24.5-0.2c30.5-1.2,57.3-11.9,80.6-31.4c4.4-3.7,8.4-8,13-11.9c0.9,1,1.4,1.9,2,2.7
	c10.5,14,17.6,29.5,22.5,46.3c4.7,16.2,4.9,32.7,4.6,49.3c-1,0-2,0.1-3,0.1c-77.7,0-155.4,0-233.6-0.3c-0.5-0.3-0.4-0.7-0.1-0.9
	c8.1-4.9,15.9-9.6,23.8-14.3C263,483.1,284.9,470,306.8,456.9z"/>
<path class="st4" d="M454.5,511.7c-0.1-16.7-0.3-33.2-5.1-49.4c-4.9-16.7-12.1-32.3-22.5-46.3c-0.6-0.8-1-1.7-1.7-2.9
	c5.3-7.9,10.8-15.6,16.8-23.3c7.4,6.7,14.2,13.3,21,20c14.6,18.4,24.6,38.8,29.1,62c2.5,13,3.3,26,2.7,39.7
	C481.4,511.8,468.2,511.8,454.5,511.7z"/>
<path class="st2" d="M463.4,409.8c-7.2-6.5-14-13.2-21.1-20.1c2-5.1,4.3-10.1,6.7-15.2c-13.1-7.2-26-14.2-39.7-21.7
	c14-8.9,18.7-22.1,22.2-36.7c14,2.8,27.6,5.8,41.1,9.1c3.6,0.9,7.1,2.4,10.6,3.7C476.6,355.7,470.2,382.6,463.4,409.8z"/>
<path class="st5" d="M483.5,328.8c-4-1.2-7.4-2.8-11-3.6c-13.5-3.3-27-6.3-41-9.5c-0.1-7.1,0.5-14.1,0.4-21.2
	c-0.1-7.5-1-14.9-1.2-22.7c7.3,1.5,14.3,3.2,22,5.2c5.5,1.4,10.5,2.5,15.4,3.6c7.2,1.7,14.4,3.5,21.6,5.1
	c9.9,2.2,17.9,6.5,14.3,20.2c-1.5,5.7-2.5,11.8-5,17C496.2,328.9,490,329.4,483.5,328.8z"/>
<path class="st1" d="M435.2,167.6c-1.7-2.2-3.3-4.5-5.1-6.6c-3.4-3.8-3.6-7.7-2.2-12.7c3.2-11.4,5.5-23.1,8.3-34.6
	c0.2-1,1-1.9,1.7-3.4c4.8,6.8,9.4,13.2,14.1,19.8c7.2-3.6,14.2-7,22.2-10.9c-0.5,2.6-0.7,4.3-1.1,6.1c-2.7,11.6-5.4,23.1-8.1,34.6
	c-0.7,3.1-2.1,5.5-5.4,6.7c-3.1,1.1-5.9,2.7-9.6,4.3c-8.4,4-8.4,4-13.7-2.4C436,168.2,435.6,167.9,435.2,167.6z"/>
<path class="st1" d="M460.2,244.9c-1.6-2.1-3.3-4.1-4.7-6.3c-2-3.1-3.8-5.8-2.6-10.2c3.6-12.9,6.5-26.1,10-40.5
	c3.2,4.1,5.8,7.2,8.1,10.6c6.9,10,6.8,10,17.1,4.2c3.6-2,7.4-3.6,12.1-5.9c-3.6,15.1-6.9,28.9-10.3,42.7c-0.3,1.2-1.4,2.6-2.5,3.3
	c-3.5,2.1-7.1,3.9-11.4,5.9c-3.4,1.3-6.4,4-8.6,3.4c-2.4-0.6-4.1-4.2-6.1-6.5C461.1,245.4,460.6,245.2,460.2,244.9z"/>
<path class="st6" d="M113.9,77.8c4.5-3.3,9-6.6,13.8-9.9c6.4,15.7,12.4,31.4,18.4,47.1c1.7,4.5,3.5,9,5.6,13.7
	c-2.8,6.4-6,12.5-9.8,18.7c-5.7-13.1-10.7-26.3-15.9-39.4C122.1,97.9,117.9,87.9,113.9,77.8z"/>
<path class="st6" d="M435,168c0.5-0.1,0.9,0.2,1.3,0.6c5.3,6.4,5.3,6.4,13.3,2.5c-2,10.5-4.2,21.2-6.7,31.8
	c-4.2,17.7-8.6,35.3-13,53c-0.2,0.8-0.6,1.5-1,2.7c-2.7-10.7-5.4-21.8-8.1-33.4C425.5,206,430.2,187.2,435,168z"/>
<path class="st7" d="M374.4,119.7c-8.5,2.1-9.3,1.4-14.4-5.3c-9.6-12.7-19.6-25.1-29.5-37.5c-1.8-2.3-4.6-3.8-6.7-5.9
	c-3.4-3.5-3.7-8.4-1-11.2c2.5-2.6,7.6-3,10.8,0.2c7.8,7.7,15.5,15.5,22.6,23.8c6.1,7.2,11.5,15.1,16.6,23c1.9,2.9,2.2,6.7,3.2,10.5
	C375.6,118.3,375.1,118.9,374.4,119.7z"/>
<path class="st8" d="M460.1,245.3c0.5-0.1,1,0.1,1.3,0.4c2,2.3,3.6,5.9,6.1,6.5c2.2,0.6,5.2-2.1,8.2-3.3
	c-2.2,10.3-4.8,20.7-7.4,31.4c-5-0.7-10-1.9-15.1-3.3C455.3,266.4,457.7,256.1,460.1,245.3z"/>
<path class="st9" d="M217,510.7c0,0,0,0.4,0,0.6c-24.7,0.3-49.3,0.3-74.4,0.3c0-0.6,0.5-1.1,1.6-1.5c1.9,0.3,3.2,0.6,4.5,0.6
	C171.4,510.8,194.2,510.8,217,510.7z"/>
<path class="st3" d="M350,266.1c-0.7,13.9,0.4,28.2-2.4,41.6c-7.4,35.2-37.8,61.2-73.4,66.2c-42.4,6-88.5-23.3-96.7-71.1
	c-2-11.7-1-23.8-1.1-36.3c17-10.9,33.7-21.3,50.3-31.7c23.6-14.8,47.4-15.4,71.3-1C315.4,244.3,332.7,255.3,350,266.1 M220.7,262
	c-4.9,4.2-6,8-3.5,11.5c3.2,4.3,6.5,4.5,12.5,0.5c2.5-1.6,5-3.4,7.6-4.7c13-6.8,26.3-12.2,40.8-5.1c7.1,3.5,13.9,7.8,20.6,12
	c4,2.4,7.8,2.3,10.7-1.3c2.6-3.3,2.4-6.9-0.8-9.7c-2.5-2.2-5.2-4.2-7.9-6c-11.1-7.3-22.9-13-36.5-13.1
	C248,245.7,234.5,253.2,220.7,262z"/>
<path class="st10" d="M350.1,265.6c-17.4-10.3-34.6-21.3-52.1-31.8c-23.9-14.5-47.7-13.8-71.3,1c-16.6,10.4-33.3,20.8-50.2,31.3
	c-0.4-14.7-1-29.6-0.3-44.4c0.9-17.1,3.9-33.9,12.9-49.1c9.1-15.4,28.1-17.8,41.8-9.2c5.3,3.4,10.4,7.1,15.6,10.8
	c9.6,6.7,19.7,7.5,30.1,1.9c6.6-3.6,12.9-7.6,19.3-11.4c10.7-6.4,21.8-8.5,32.8-1.2c7.5,5,11.9,12.8,14.2,21.2
	c2.8,10.2,5.1,20.7,5.9,31.2C350,232.1,349.8,248.6,350.1,265.6z"/>
<path class="st11" d="M217.3,510.6c-23.1,0.2-45.9,0.2-68.7,0.2c-1.3,0-2.6-0.3-4.2-0.7c25.7-16.1,51.7-32,77.7-47.8
	c2.6-1.6,5-3.2,7.8-5.1c22.2-0.3,44.3-0.3,66.8-0.4c3.4,0,6.4,0.1,9.8,0.1C284.9,470,263,483.1,241,496.3
	C233.2,501,225.4,505.7,217.3,510.6z"/>
<path class="st1" d="M135.5,349.8c13-0.2,22.5,6.4,31.3,14.3c11.8,10.7,23.4,21.6,35.4,32.2c3.3,2.9,7.5,4.9,11.3,7.2
	c4.2,2.6,5.6,6.2,3.7,10c-2,4.1-6.4,5.8-10.5,3c-10.5-7.2-21-14.5-30.8-22.6c-8.6-7.1-15.8-15.7-24.4-22.7c-4-3.3-9.6-5-14.8-6.1
	c-4.4-1-7.9-2.3-8.4-6.9C127.7,353.4,130.5,350.6,135.5,349.8z"/>
<path class="st7" d="M370,354.1c5.6-1.6,11-3.2,16.5-4.2c4.1-0.7,8.1,0.2,9.9,4.7s-1.3,7-4.2,10c-10-0.9-17.6,3.7-24.3,10
	c-7.7,7.3-14.8,15.4-22.7,22.4c-7.4,6.6-15.5,12.4-23.5,18.3c-3.9,2.8-8.8,1.8-11.1-1.7c-2.4-3.7-1.6-8.1,2.8-10.6
	c13.6-7.8,23.9-19.4,35-30.1C355.3,366.4,362.7,360.5,370,354.1z"/>
<path class="st4" d="M221,261.8c13.5-8.6,27-16.1,43.2-15.9c13.6,0.1,25.4,5.9,36.5,13.1c2.8,1.8,5.4,3.8,7.9,6
	c3.3,2.9,3.4,6.4,0.8,9.7c-2.8,3.6-6.7,3.8-10.7,1.3c-6.8-4.2-13.5-8.5-20.6-12c-14.5-7-27.9-1.6-40.8,5.1c-2.6,1.4-5.1,3.1-7.6,4.7
	c-6,3.9-9.3,3.8-12.5-0.5C214.7,270,215.8,266.2,221,261.8z"/>
</svg>
