<?xml version="1.0" encoding="utf-8"?>
<svg version="1.1" id="Layer_1" xmlns="http://www.w3.org/2000/svg" xmlns:xlink="http://www.w3.org/1999/xlink" x="0px" y="0px"
	 viewBox="0 0 192 192" style="enable-background:new 0 0 192 192;" xml:space="preserve">
	<title>logo-rounded</title>
	<path fill="#00DB6E" d="M20,0h152c11,0,20,9,20,20v152c0,11-9,20-20,20H20c-11,0-20-9-20-20V20C0,9,9,0,20,0z"/>
	<path fill="#FFFFFF" d="M115,96.4c1.1-1.8,2.6-1.3,3.8-1.7c20-5.7,32.6-24.5,30.1-44.9s-20-35.6-41-35.8c-17.7-0.1-35.3,0-53-0.1
		c-2.7,0-4.2,0.1-4.2,3.6c0.1,52.3,0.1,104.7,0,157c0,2.4,0.4,3.6,3.2,3.5c19-0.1,38,0.3,57-0.2c20.3-0.6,37.4-18.5,38.1-38.7
		C149.7,118.1,137.5,102.5,115,96.4z M124.3,71.1c-5.8,0.2-13.2-5.8-14-11.5c-0.6-3.7,1.9-6.4,5.8-6.3c5.5,0.1,12.2,5.7,13.4,11.1
		C130.3,68.3,128.2,71,124.3,71.1L124.3,71.1z M116.4,35.1c5.8-0.1,12.1,4.9,12.3,9.5c0.1,3.3-2.6,5.5-6.8,5.6
		c-5.9,0.1-12.2-4.7-12.1-9.5C109.7,36.3,112.6,35.1,116.4,35.1L116.4,35.1z M114.2,77.2c0,2.7-0.5,5.1-3,6.4s-4.8,0.1-6.8-1.5
		c-4.3-3.3-6.9-10.1-5.7-14.5c1.2-4.2,4.2-5.6,8-3.5C111.7,66.8,113.8,71.5,114.2,77.2L114.2,77.2z M78.9,39.6
		c5.1-1.4,8.1-4.9,10.6-9.2c0.4-0.7,1-1.4,1.5-2c2.3-2.5,4.7-5.1,8.4-4.3c3.4,0.8,4.1,4.1,5,6.9c1.2,3.5,1.7,7.3,1.6,11
		c0.1,2.8-0.3,5.5-1.2,8.2c-0.9,3.3-3.8,5.7-7.3,5.9c-6.7,0.8-13.4-0.5-19.2-3.8c-2.2-1.3-4.3-2.8-4.1-5.7
		C74.4,43.5,75.7,40.5,78.9,39.6z M92.3,74.5c-1.2,2.1-3.7,3.1-6,2.3c-3.8-1.1-7.2-6.5-7.3-12.2c0.1-2.6,0.7-5.7,4.4-6.8
		c3.4-1,5.6,1.2,7.5,3.6C93.8,65.3,94.4,71.2,92.3,74.5z M108.9,167.5C97,164.9,87,158,75.8,153.9c-1.3-0.5-3.1-1.2-2.6-3.1
		c0.5-1.7,2-2.5,3.8-2.7c2.2-0.3,4.3,0.1,6.3,1c2.2,1.1,4.5,2,6.9,2.8c1.4,0.4,3.2,2.4,4.4,0.4c0.9-1.7,0.8-3.7-0.3-5.2
		c-1.9-2.7-4.1-5.2-6.4-7.6c-4.4-4-8.6-8.4-12.4-13c-1.6-2-5.1-4.5-2.1-7.1c3.1-2.7,4.8,1.3,6.5,3.2c4.2,4.7,9.6,7.8,14.7,11.4
		c-3.8-6-8.2-11.4-11.7-17.4c-0.7-1.2-1.4-2.2-2.1-3.4c-1-1.7-1.6-3.7,0.3-4.9c2.1-1.4,3.7,0.3,4.9,1.9c4.5,6.6,10.1,12.3,15.9,17.8
		c-1.3-5.6-3.7-10.8-7.2-15.3c-1.6-2.1-5-4.8-1.8-7.1s4.8,1.8,6.4,3.9c4.3,5.3,8.2,10.9,11.4,16.9c0.6,1.1,1,2.8,2.8,2.1
		c1.8-0.6,0.8-2.2,0.8-3.4c-0.2-5.2-1.3-10.2-3.3-15c-0.6-1.5-1.4-3.5,0.6-4.4c2.2-1,3.5,1,4.1,2.6c1.5,3.5,2.7,7.1,3.6,10.8
		c1.8,7.7,5.1,14.7,9.1,21.5c0.8,1.4,1.5,3,1.9,4.6C134.1,158.3,122.5,170.3,108.9,167.5L108.9,167.5z"/>
</svg>
