<?xml version="1.0" encoding="utf-8"?> <svg version="1.1" id="Layer_1" xmlns="http://www.w3.org/2000/svg" xmlns:xlink="http://www.w3.org/1999/xlink" x="0px" y="0px" viewBox="0 0 512 512" style="enable-background:new 0 0 512 512;" xml:space="preserve"> <style type="text/css"> .st3{fill:#00CC99;} .st4{fill:#00A37A;} .st5{fill:#2864F0;} .st6{fill:#FEFFFF;} .st7{fill:#3F4E55;} .st8{fill:#3F4D54;} .st9{fill:#3D4C53;} .st10{fill:#3D4C54;} .st11{fill:#6C7F89;} .st12{fill:#6C7F88;} .st13{fill:#6A7D87;} .st14{fill:#7A3DB7;} .st15{fill:#9966CC;} </style> <path class="st3" d="M69.9,337.3c3-6.2,7.8-7.8,14.2-7.7c17.1,0.3,34.3,0.1,51.4,0.1c7.4,0,11.8,4.3,11.8,11.4 c0,7-4.3,11.2-11.6,11.2c-18,0-36,0-54,0c-5.4,0-9.2-2.1-11.6-7.2C69.9,342.5,69.9,340.1,69.9,337.3z"/> <path class="st3" d="M182.6,302.3c-2.4,5.9-6.6,8-12.6,7.9c-17.6-0.2-35.2-0.1-52.8-0.1c-7.5,0-11.9-4.1-11.9-11.3 c0-7.2,4.3-11.3,11.8-11.3c17.1,0,34.2,0,51.4,0C179.5,287.5,182.8,290.8,182.6,302.3z"/> <path class="st3" d="M128.2,369.9c16.5,0,32.7,0,48.9,0c7.5,0,11.7,4.1,11.7,11.5c0,7-4.3,11.1-11.7,11.1c-18,0-36,0-54,0 c-7.5,0-11.7-4.1-11.7-11.5c0-7,4.3-11.1,11.7-11.1C124.6,369.9,126.2,369.9,128.2,369.9z"/> <path class="st4" d="M290.1,328.5c-0.1,1.2-0.3,2.5-0.9,3.7c-3.5,7.5-1.9,16.8,3.9,22.8c5.4,5.5,10.8,11.1,16.2,16.9 c-0.9,1.1-2,2-2.9,3C265,416.3,223.7,457.6,182.3,499c-5.1,5.1-14.9,8.2-23.9,4.5c-7.7-3.1-13.5-11.4-13.5-19.9 c0.1-7.1,2.4-12.6,7.4-17.6C198.2,420.3,244,374.5,290.1,328.5z"/> <path class="st4" d="M406.3,234.6c-3.5-0.2-7.1-0.9-10.7-1.2c-5.3-0.3-9.7,1.9-13.4,5.5c-5.6,5.6-11.2,11.2-16.8,16.7 c-0.9,0.9-2.1,1.6-3.4,2.5c-10.4-7.3-20.6-14.5-30.6-21.9c-2.3-1.7-3.7-1.3-5.7,0.7c-15,15.1-30,30.1-45.1,45.2 c-5.9,5.9-15.8,7.8-23.9,4.1c-8.2-3.7-12.7-10-13.2-19.2c-0.3-7.4,2.3-13.1,7.5-18.2c19.7-19.5,39.4-39,58.8-58.8 c6.7-6.9,20.8-8.1,28.4-2.7c22,15.5,44.1,30.7,66.3,46C405,233.6,405.7,234,406.3,234.6z"/> <path class="st3" d="M470.1,172c5.8,5.2,10.7,10.7,12.5,18.4c2.5,10.5,1.1,20.4-5.5,29c-6.7,8.8-16,13.4-27.2,13 c-16.9-0.5-29.3-11.6-31.9-27.3c-3-18.1,7.3-33.7,24.7-38C452.5,164.6,461.5,166.5,470.1,172z"/> <path class="st3" d="M506.2,324.8c-2.1,3.8-3.9,7.6-6.5,10.7c-3.8,4.6-9.3,6.3-15.1,6.3c-29.7,0.1-59.4,0.2-89.1,0 c-11.9-0.1-21.9-9.7-21.5-21.5c0.1-4.1,0-8.2,0-12c-11.2,11.2-22.4,22.4-33.7,33.7c16.1,16.1,32.5,32.9,49.4,49.2 c8.1,7.8,8.1,24,0.1,31.8c-26,25.5-51.5,51.4-77.3,77.1c-5.8,5.8-15.6,7.6-23.7,4.3c-7.7-3.1-13.4-11.4-13.4-19.6 c0-7.2,2.4-12.9,7.5-17.9c20-19.7,39.8-39.7,59.8-59.6c-11.4-11.4-22.6-22.6-34.1-34.2c-5.6-5.9-11-11.5-16.4-17 c-5.8-6-7.4-15.3-3.9-22.8c0.5-1.2,0.7-2.5,1.1-3.8c0,0,0,0.1,0.2,0c0.3-0.3,0.4-0.5,0.6-0.7c3.5-3.6,6.9-7.1,10.4-10.7 c20.1-20.1,40.2-40.2,60.5-60.6c1.3-1.1,2.5-1.8,3.4-2.7c5.6-5.6,11.2-11.2,16.8-16.7c3.7-3.6,8.1-5.9,13.4-5.5 c3.6,0.2,7.2,0.9,10.7,1.4c5.9,3.2,10.6,7.3,11.9,14.3c0.3,1.4,0.6,2.8,0.6,4.2c0,14.8,0,29.6,0,45c1.4,0,2.7,0,3.9,0 c20.6,0,41.3,0,61.9,0c10,0,19.6,6.3,22.2,16.7C506.2,317.6,506.2,321,506.2,324.8z"/> <path class="st5" d="M289.9,328.8c0,0.1-0.1,0.4-0.4,0.7C289.4,329.3,289.5,329.1,289.9,328.8z"/> <path class="st6" d="M36.6,163.5c-2.2-5-4.6-9.8-6.4-14.9c-2.8-8-4.3-16.3-4.2-25c3.4-0.2,6.6-0.2,9.7-0.2c2.5,0,4.2-1.6,4.1-3.8 c-0.1-2.1-1.7-3.6-4.1-3.6c-3.3,0-6.6,0-10,0c0.4-14.1,3.9-27.4,10.8-39.9c3.1,1.6,5.8,3.3,8.7,4.8c2.1,1.1,4.2,0.5,5.3-1.3 c1-1.8,0.5-3.9-1.5-5.1c-2.9-1.7-5.9-3.3-8.8-5c3.1-4.2,5.9-8.6,9.2-12.5c5.7-6.7,12.3-12.4,20.1-16.7c1.7,2.7,3.2,5.4,4.7,8 c1.4,2.4,3.5,3.2,5.5,2.1c2-1.1,2.4-3.3,1.1-5.7c-1.6-2.8-3.2-5.5-4.8-8.3c5.3-2.3,10.5-4.8,16-6.7c7.6-2.7,15.6-3.9,23.9-3.9 c0.2,3.4,0.2,6.5,0.2,9.7c0,2.6,1,3.6,3.9,4.2c2.6-0.4,3.6-1.9,3.6-4.3c0-3.3,0-6.5,0-9.8c14.1,0.4,27.3,4,39.8,10.8 c-1.5,2.9-3.1,5.6-4.6,8.2c-1.4,2.5-1,4.7,1.1,5.9c2,1.1,4,0.4,5.4-2c1.6-2.8,3.2-5.6,4.9-8.4c11.9,7.4,21.5,17.2,29.1,29.2 c-2.7,1.8-5.4,3.3-8.1,4.9c-2.5,1.5-3.3,3.5-2,5.6c1.2,2,3.3,2.4,5.7,1.1c2.8-1.6,5.6-3.2,8.4-4.9c6.6,12.4,10.1,25.6,10.5,39.8 c-3.3,0.2-6.4,0.2-9.5,0.2c-2.8,0-4.4,1.5-4.4,3.8s1.6,3.8,4.4,3.8c3.2,0.1,6.5,0,9.7,0c-0.4,14.1-4,27.3-10.7,39.8 c-2.9-1.5-5.5-3.1-8.2-4.6c-2.5-1.4-4.7-1-5.9,1.1s-0.4,4,2.2,5.5c2.7,1.6,5.5,3.2,8.2,4.8c-7.4,11.9-17.2,21.5-29.2,29.1 c-1.8-2.9-3.4-5.7-5.1-8.5c-1.3-2.2-3.4-2.8-5.4-1.6c-1.9,1.1-2.4,3.3-1.2,5.5c1.6,2.9,3.3,5.7,5,8.6c-12.4,6.6-25.6,10.2-39.8,10.5 c-0.2-3.4-0.1-6.5-0.2-9.7c-0.1-2.7-1.1-3.7-3.9-4.1c-2.6,0.4-3.6,1.9-3.6,4.3c0,3.2,0,6.5,0,9.7c-14.1-0.4-27.4-3.9-39.9-10.8 c1.6-3.1,3.3-5.8,4.8-8.7c1.1-2.1,0.5-4.2-1.4-5.3c-1.8-1-3.9-0.5-5.1,1.5c-1.7,2.9-3.3,5.9-5,8.8c-4.3-3.2-8.8-6.1-12.8-9.6 c-6.6-5.6-12.1-12.2-16.4-19.8c2.9-1.8,5.6-3.3,8.3-4.9c2.2-1.3,2.8-3.5,1.7-5.4c-1.2-1.9-3.2-2.3-5.5-1.1 C42.2,160.2,39.4,161.9,36.6,163.5 M120.2,132.2c2.2-0.7,4.6-1,6.6-2.2c1.5-0.9,2.4-0.8,3.8,0c9.5,5.6,19.1,11.1,28.7,16.6 c2.6,1.5,4.8,1.2,5.9-0.8c1.2-2,0.4-4.1-2.1-5.6c-0.3-0.2-0.7-0.4-1-0.6c-9.4-5.4-18.9-10.9-28.3-16.4c-0.7-0.4-1.4-1.4-1.4-2.1 c0.4-5.7-2.1-10.3-7.2-12.8c-1.3-0.6-1.5-1.3-1.5-2.6c0.1-5.1,0-10.2,0-15.2c0-11.1,0-22.1,0-33.2c0-3.4-0.8-4.3-4.1-4.9 c-2.8,0.8-3.4,1.7-3.4,4.7c0,15.9,0,31.8,0,47.7c0,1.9-0.4,2.9-2.2,3.8c-5.1,2.5-7.6,8.4-6.2,13.8 C109.2,128.2,114.1,132,120.2,132.2z"/> <path class="st7" d="M199.7,170c-2.8-1.5-5.6-3.1-8.3-4.7c-2.6-1.5-3.3-3.5-2.2-5.5c1.2-2.1,3.3-2.5,5.9-1.1 c2.7,1.5,5.3,3.1,8.1,4.7C202.2,165.6,201,167.7,199.7,170z"/> <path class="st8" d="M170.3,39.9c-1.5,2.9-3.1,5.7-4.8,8.5c-1.4,2.4-3.4,3.1-5.4,2c-2.1-1.2-2.5-3.4-1.1-5.9 c1.5-2.7,3.1-5.3,4.7-8.1C165.9,37.4,168,38.6,170.3,39.9z"/> <path class="st7" d="M203.3,75.7c-2.7,1.8-5.5,3.4-8.3,5c-2.4,1.3-4.5,0.9-5.7-1.1c-1.2-2.1-0.5-4.1,2-5.6c2.7-1.6,5.3-3.1,8.1-4.7 C200.8,71.4,202,73.5,203.3,75.7z"/> <path class="st8" d="M163.9,203c-1.8-2.8-3.5-5.6-5.1-8.5c-1.2-2.2-0.7-4.4,1.2-5.5c1.9-1.2,4-0.6,5.4,1.6c1.7,2.8,3.2,5.6,4.9,8.5 C168.3,200.5,166.2,201.8,163.9,203z"/> <path class="st9" d="M214.2,123.3c-3.3,0.2-6.5,0.2-9.8,0.2c-2.7,0-4.4-1.5-4.4-3.8s1.6-3.7,4.4-3.8c3.1,0,6.2,0,9.5,0 C214.1,118.3,214.2,120.7,214.2,123.3z"/> <path class="st10" d="M123.1,25c0.2,3.3,0.2,6.6,0.2,9.8c0,2.3-1,3.9-3.6,4.1c-0.2-4.8-0.2-9.3-0.2-13.9l0.1-0.2 C120.7,24.8,121.8,24.9,123.1,25z"/> <path class="st9" d="M119.5,200.3c2.7,0.4,3.7,1.4,3.7,4.1c0.1,3.2,0,6.3,0,9.7c-1.1,0.3-2.2,0.4-3.5,0.6c-0.2,0-0.3-0.1-0.3-0.4 C119.5,209.3,119.5,204.8,119.5,200.3z"/> <path class="st11" d="M69.9,199.4c1.6-3.1,3.2-6,4.9-8.9c1.2-1.9,3.3-2.5,5.1-1.5c1.9,1,2.5,3.2,1.4,5.3c-1.6,2.8-3.2,5.6-4.9,8.6 C74.1,201.9,72,200.7,69.9,199.4z"/> <path class="st11" d="M36.7,163.6c2.7-1.8,5.5-3.4,8.3-5c2.3-1.3,4.4-0.9,5.5,1.1c1.1,1.9,0.5,4.1-1.7,5.4c-2.7,1.6-5.5,3.1-8.4,4.8 C39.1,167.8,37.9,165.8,36.7,163.6z"/> <path class="st11" d="M40.2,69.6c3.1,1.6,6,3.1,8.9,4.9c1.9,1.2,2.4,3.3,1.5,5.1c-1,1.9-3.2,2.5-5.3,1.3c-2.8-1.6-5.6-3.2-8.6-5 C37.8,73.8,38.9,71.7,40.2,69.6z"/> <path class="st12" d="M76,36.4c1.7,2.7,3.4,5.4,4.9,8.2c1.4,2.4,0.9,4.6-1.1,5.7c-2,1.1-4,0.3-5.5-2.1c-1.5-2.6-3-5.3-4.6-8 C71.8,38.8,73.8,37.6,76,36.4z"/> <path class="st13" d="M25.3,116.2c3.3-0.2,6.7-0.3,10-0.2c2.4,0,4,1.5,4.1,3.6c0.1,2.2-1.6,3.8-4.1,3.8c-3.2,0-6.3,0-9.7,0 C25.3,121,25.3,118.7,25.3,116.2z"/> <path class="st13" d="M119.7,25c0.2,4.6,0.2,9.1,0.3,13.9c-2.7-0.3-3.7-1.3-3.7-3.9c0-3.2,0-6.3,0-9.7C117.3,25,118.4,25,119.7,25z" /> <path class="st13" d="M119.8,200.2c0.2,4.6,0.1,9.1,0.1,13.9c-1.1,0.2-2.2,0.2-3.5,0.2c-0.2-3.3-0.2-6.5-0.2-9.8 C116.2,202.1,117.3,200.7,119.8,200.2z"/> <path class="st9" d="M119.6,52.5c3,0.5,3.7,1.5,3.7,4.9c0,11.1,0,22.1,0,33.2c0,5.1,0,10.2,0,15.2c0,1.3,0.3,2,1.5,2.6 c5.1,2.4,7.5,7,7.2,12.8c0,0.7,0.7,1.7,1.4,2.1c9.4,5.5,18.8,10.9,28.3,16.4c0.3,0.2,0.7,0.4,1,0.6c2.5,1.5,3.3,3.6,2.1,5.6 s-3.4,2.3-5.9,0.8c-9.6-5.5-19.1-11-28.7-16.6c-1.4-0.8-2.3-0.9-3.8,0c-2,1.1-4.4,1.5-6.7,1.8c-0.1-7.3-0.1-14.4-0.1-21.4 C119.5,91.1,119.5,71.8,119.6,52.5z"/> <path class="st13" d="M119.8,52.5c0.1,19.3,0.1,38.6,0.1,57.9c0,7,0,14.1,0,21.3c-5.9,0.2-10.7-3.6-12.1-9.2 c-1.3-5.5,1.2-11.3,6.2-13.8c1.8-0.9,2.2-1.9,2.2-3.8c-0.1-15.9,0-31.8,0-47.7C116.2,54.2,116.9,53.4,119.8,52.5z"/> <path class="st14" d="M119.7,235.9c-0.2-7.4-0.1-14.5,0.1-21.7c1.3-0.1,2.4-0.2,3.7-0.4c14.2-0.5,27.4-4.1,40-10.8 c2.2-1.3,4.3-2.5,6.6-3.8c11.9-7.6,21.7-17.3,29.2-29.3c1.3-2.2,2.5-4.4,3.8-6.6c6.6-12.6,10.2-25.8,10.7-40.1c0-2.6,0-5-0.1-7.6 c-0.5-14.2-4.1-27.4-10.8-40c-1.3-2.2-2.5-4.3-3.8-6.6c-7.7-11.9-17.3-21.7-29.3-29.2c-2.2-1.3-4.4-2.5-6.6-3.8 c-12.6-6.6-25.8-10.2-40.1-10.7c-1.3-0.2-2.4-0.2-3.5-0.5c-0.1-7.4-0.1-14.5-0.1-21.7c1.8-0.1,4.2-0.1,7.1,0 c3.3,0.2,5.7,0.5,8.6,0.9c4.2,0.6,7.9,1.2,9.6,1.6c11.2,2.6,22,6.5,32,12.3c7.4,4.2,14.5,9,20.6,14.9c5.3,5.1,10.3,10.5,14.9,16.2 c7.4,9,12.7,19.3,16.7,30.2c2.1,5.9,4.7,14.5,6,24.9c0.8,6.7,0.8,12.2,0.8,15.2c0,8.3-0.7,14.3-0.9,15.8c-0.1,0.8-0.5,5.1-1.6,9.6 c-2.6,11.2-6.5,22-12.3,32c-4.1,7.2-8.7,14-14.3,20c-4.5,4.9-9.4,9.3-14.4,13.6c-7.7,6.6-16.4,11.7-25.7,15.8 c-14.9,6.5-27.4,8.3-31.8,8.8C128.8,235.9,123.6,236,119.7,235.9z"/> <path class="st15" d="M120.1,214.2c0,7.1-0.1,14.3-0.1,21.7c-1.7,0.1-4,0.3-6.8,0.2c-3.4-0.1-6-0.5-8.1-0.8 c-7.6-1.3-12.6-2.3-19.4-4.1c-8.5-2.3-16.7-5.7-24.1-10.5c-6.5-4.2-12.9-8.6-18.8-13.5c-4.2-3.5-7.8-7.8-11.5-11.8 c-5.5-5.9-9.8-12.6-13.6-19.6C15.1,171,7.3,156,4.6,135.2c-0.2-1.6-0.4-3-0.4-3.9c-0.3-3.5-0.4-7.3-0.4-11.3c0-5,0.3-9.7,0.7-14 c0-0.4,0.1-0.9,0.2-1.6c0,0,0.7-6.4,2-11.8c2.6-11,6.4-21.5,12.5-31.1c4.2-6.6,8.7-13,13.6-19c3.5-4.2,7.8-7.8,11.8-11.5 c6.2-5.7,13.3-10.3,20.7-14.3c5.3-2.8,19.7-10,39.9-12.5c6.1-0.7,11.2-0.9,14.7-0.9C120,10.4,120,17.6,120,25c0,0.3-0.1,0.5-0.3,0.4 c-1.3,0-2.4,0-3.7,0.1c-8.3,0.2-16.3,1.5-23.9,4.1C86.7,31.5,81.4,34,76,36.3c-2.2,1.2-4.2,2.4-6.4,3.7c-7.7,4.6-14.4,10.3-20.1,17 c-3.4,3.9-6.2,8.3-9.4,12.6c-1.3,2.2-2.4,4.2-3.7,6.4c-6.8,12.6-10.3,25.9-10.7,40.2c0,2.5,0,4.9,0,7.4c0.1,8.7,1.6,17,4.4,25 c1.8,5.1,4.2,9.9,6.5,15c1.2,2.2,2.4,4.2,3.7,6.4c4.5,7.6,10,14.2,16.6,19.8c4,3.5,8.5,6.4,12.9,9.7c2.2,1.3,4.2,2.4,6.4,3.7 c6,3.2,12.1,5.7,18.4,7.4c5.6,1.6,11,2.1,21.8,3.3C118,214,119.2,214.1,120.1,214.2z"/> </svg>