<svg id="e2adae6d-8962-42a2-83ad-860f60f12891" data-name="Layer 1" xmlns="http://www.w3.org/2000/svg" viewBox="0 0 58 58"><path d="M40.6,1H17.4L1,17.4V40.6L17.4,57H40.6L57,40.6V17.4Z" style="fill:#fc0"/><path d="M38.11,7H19.89L7,19.89V38.11L19.89,51H38.11L51,38.11V19.89Z" style="fill:#a020f0"/><path d="M57.12,16.11,41.89.88A3,3,0,0,0,39.77,0H18.23a3,3,0,0,0-2.12.88L.88,16.11A3,3,0,0,0,0,18.23V39.77a3,3,0,0,0,.88,2.12L16.11,57.12a3,3,0,0,0,2.12.88H39.77a3,3,0,0,0,2.12-.88L57.12,41.89A3,3,0,0,0,58,39.77V18.23A3,3,0,0,0,57.12,16.11ZM56,39.77a1,1,0,0,1-.29.71L40.48,55.71a1,1,0,0,1-.71.29H18.23a1,1,0,0,1-.71-.29L2.29,40.48A1,1,0,0,1,2,39.77V18.23a1,1,0,0,1,.29-.71L17.52,2.29A1,1,0,0,1,18.23,2H39.77a1,1,0,0,1,.71.29L55.71,17.52a1,1,0,0,1,.29.71Z" style="fill:aqua"/><path d="M8,37.7V20.3L20.3,8H37.7l2.59,2.59A1,1,0,0,0,41.7,9.18L39.11,6.59A2,2,0,0,0,37.7,6H20.3a2,2,0,0,0-1.41.59L6.59,18.89A2,2,0,0,0,6,20.3V37.7a2,2,0,0,0,.59,1.41l8.61,8.61a1,1,0,0,0,1.41-1.41ZM44.63,14.93A1,1,0,0,0,46,13.52l-1.63-1.63a1,1,0,0,0-1.82.83.92.92,0,0,0,.19.28,1.07,1.07,0,0,0,.26.26Zm4,1.18a1,1,0,0,0-1.41,1.41L50,20.3V37.7l-8.61,8.61a1,1,0,1,0,1.3,1.52.57.57,0,0,0,.11-.11l8.61-8.61A2,2,0,0,0,52,37.7V20.3a2,2,0,0,0-.59-1.41Z" style="fill:aqua"/><path d="M27,22H21a1,1,0,0,0,0,2h2V35a1,1,0,0,0,2,0V24h2a1,1,0,0,0,0-2ZM42,35V30h3a3,3,0,0,0,3-3V25a3,3,0,0,0-3-3H41a1,1,0,0,0-1,1V35a1,1,0,0,0,2,0Zm0-11h3a1,1,0,0,1,1,1v2a1,1,0,0,1-1,1H42Zm-4,1a3,3,0,0,0-3-3H33a3,3,0,0,0-3,3v8a3,3,0,0,0,3,3h2a3,3,0,0,0,3-3Zm-2,8a1,1,0,0,1-1,1H33a1,1,0,0,1-1-1V25a1,1,0,0,1,1-1h2a1,1,0,0,1,1,1ZM18,31a3,3,0,0,0-3-3H13a1,1,0,0,1-1-1V25a1,1,0,0,1,1-1h2a1,1,0,0,1,1,1,1,1,0,0,0,2,0,3,3,0,0,0-3-3H13a3,3,0,0,0-3,3v2a3,3,0,0,0,3,3h2a1,1,0,0,1,1,1v2a1,1,0,0,1-1,1H13a1,1,0,0,1-1-1,1,1,0,0,0-2,0,3,3,0,0,0,3,3h2a3,3,0,0,0,3-3Z" style="fill:aqua"/><path d="M24,48a1,1,0,0,0-1,1v2a1,1,0,0,0,2,0V49A1,1,0,0,0,24,48Zm5,0a1,1,0,0,0-1,1v2a1,1,0,0,0,2,0V49A1,1,0,0,0,29,48Zm5,0a1,1,0,0,0-1,1v2a1,1,0,0,0,2,0V49A1,1,0,0,0,34,48Zm5,0a1,1,0,0,0-1,1v2a1,1,0,0,0,2,0V49A1,1,0,0,0,39,48ZM19,48a1,1,0,0,0-1,1v2a1,1,0,0,0,2,0V49A1,1,0,0,0,19,48Z" style="fill:aqua"/></svg>