<?xml version="1.0" encoding="utf-8"?> <svg version="1.1" id="svg2" inkscape:version="0.48.4 r9939" sodipodi:docname="javascript.svg" xmlns:cc="http://creativecommons.org/ns#" xmlns:dc="http://purl.org/dc/elements/1.1/" xmlns:inkscape="http://www.inkscape.org/namespaces/inkscape" xmlns:rdf="http://www.w3.org/1999/02/22-rdf-syntax-ns#" xmlns:sodipodi="http://sodipodi.sourceforge.net/DTD/sodipodi-0.dtd" xmlns:svg="http://www.w3.org/2000/svg" xmlns="http://www.w3.org/2000/svg" xmlns:xlink="http://www.w3.org/1999/xlink" x="0px" y="0px" viewBox="0 0 111.5 126.5" style="enable-background:new 0 0 111.5 126.5;" xml:space="preserve"> <style type="text/css"> .st0{fill:#D6BA32;} .st1{fill:#FFFFFF;} .st2{fill:#FFDA3E;} .st3{fill:#EAEAEA;} </style> <sodipodi:namedview bordercolor="#666666" borderopacity="1.0" fit-margin-bottom="0" fit-margin-left="0" fit-margin-right="0" fit-margin-top="0" id="base" inkscape:current-layer="layer1" inkscape:cx="50.16802" inkscape:cy="19.624571" inkscape:document-units="px" inkscape:pageopacity="0.0" inkscape:pageshadow="2" inkscape:window-height="764" inkscape:window-maximized="0" inkscape:window-width="1026" inkscape:window-x="220" inkscape:window-y="220" inkscape:zoom="0.77995601" pagecolor="#ffffff" showgrid="false"> </sodipodi:namedview> <g id="g3768" transform="matrix(1.25,0,0,1.25,-2.5065195,174.1722)"> <path id="path3770" inkscape:connector-curvature="0" class="st0" d="M2-139.3c10-0.4,20,0.1,29.9,0c11-0.4,22-0.1,33,0 c8.7,0,17.5,0,26.2,0c-2.8,30.3-5.5,60.7-8.1,91C71.4-45,59.7-41.7,48-38.4c-1.5,0.6-3,0-4.5-0.4c-11.1-3.2-22.3-6.4-33.4-9.4 C7.2-78.5,4.5-108.9,2-139.3 M34.3-73c-5.8-1.6-11.5-3.4-17.4-4.7c-0.2,3.5-0.1,7,0.3,10.4c8.6,2.1,17,4.8,25.6,6.9 c0.1-19.8,0-39.6,0-59.4c-2.8-0.1-5.6-0.1-8.4-0.2C34.1-104.3,34.4-88.6,34.3-73L34.3-73z"/> </g> <polygon class="st1" points="90.2,98.8 60.2,98.8 60.2,23.5 95.7,23.5 95.7,66.9 94.2,84.6 "/> <g id="g3796" transform="matrix(1.25,0,0,1.25,-2.5065195,174.1722)"> <path id="path3798" inkscape:connector-curvature="0" class="st2" d="M46.8-131.4c12,0,24.1-0.1,36.1,0c-2,26-4.4,52-6.9,77.9 c-9.7,2.8-19.4,5.7-29.3,8c-0.4-13.7,0-27.4-0.2-41.1C46.7-101.5,46.4-116.4,46.8-131.4 M50.2-119.8c0,12.9,0,25.8,0,38.7 c5.9-0.9,11.7-2,17.6-3.1c-0.1,3-0.2,6-0.3,9c-5.7,1.5-11.4,3.1-17.1,4.5c-0.1,3.5-0.1,6.9-0.1,10.4c7.2-1.6,24.2-5.8,24.1-7.2 c0.9-9.3,1.4-18.6,2.2-27.8c-6,0.5-11.8,1.5-17.8,1.9c0-5.3-0.1-10.5,0-15.8c6.3,0,12.5,0,18.8,0c0.4-3.5,0.8-7,1-10.6 C69.1-119.8,59.6-119.9,50.2-119.8L50.2-119.8z"/> </g> <rect x="17.1" y="22.4" class="st0" width="35.3" height="77.8"/> <path id="path3806" inkscape:connector-curvature="0" class="st3" d="M40.3,83c0.2-19.6-0.2-39.1,0.2-58.7c3.5,0.1,7,0.1,10.5,0.2 c-0.1,24.8,0,49.5,0,74.3c-10.7-2.6-21.2-6-32-8.6c-0.5-4.3-0.6-8.7-0.4-13C26,78.7,33.1,81,40.3,83z"/> <polyline class="st2" points="60.4,85.8 81.8,80.1 82.2,68.9 60.2,72.8 60.2,24.5 "/> </svg>