<?xml version="1.0" encoding="utf-8"?> <svg version="1.1" id="Layer_1" xmlns="http://www.w3.org/2000/svg" xmlns:xlink="http://www.w3.org/1999/xlink" x="0px" y="0px" viewBox="0 0 512 512" style="enable-background:new 0 0 512 512;" xml:space="preserve"> <style type="text/css"> .st0{fill:#00AB66;} .st1{fill:#5CD46C;} .st2{fill:#FFFFFF;fill-opacity:0.91;} .st3{fill:#EAEAEB;fill-opacity:0.91;} </style> <path class="st0" d="M71.4,460.8L30.4,0h451.5l-41.1,460.7L255.8,512L71.4,460.8z"/> <path class="st1" d="M405.4,431.4l35.1-393.7H256v435.1L405.4,431.4z"/> <g transform="matrix(7.83465,0,0,7.83465,-398.586,-488.321)"> <path class="st2" d="M94.8,101.2l1.4-3.5h4l-1.9-5.3l2.4-6l6.7,17.9h-5l-1.2-3.2H94.8z"/> </g> <g transform="matrix(7.83465,0,0,7.83465,-398.586,-488.321)"> <path class="st2" d="M90.5,103.5l7.2-17.9l-4.8,0L88,97.1l-3.5-11.6h-3.7l-3.8,11.6l-2.7-5.3L72,99.3l2.4,4.2h4.7l3.4-10.4 l3.2,10.4H90.5z"/> </g> <g transform="matrix(7.83465,0,0,7.83465,-398.586,-488.321)"> <path class="st3" d="M64.3,97.3h2.9c0.9,0,1.7-0.1,2.4-0.3l0.8-2.3l2.1-6.6c-0.2-0.3-0.3-0.5-0.6-0.7c-1.1-1.2-2.7-1.8-4.8-1.8 h-7.4v17.9h4.5V97.3z M68.2,89.7c0.4,0.4,0.6,1,0.6,1.7c0,0.7-0.2,1.3-0.6,1.7c-0.4,0.5-1.2,0.7-2.3,0.7h-1.7V89H66 C67.1,89,67.8,89.3,68.2,89.7z"/> </g> </svg>